<?xml version="1.0" encoding="UTF-8"?>
<svg id="b" data-name="Layer 2" xmlns="http://www.w3.org/2000/svg" viewBox="0 0 962.18 305.17">
  <defs>
    <style>
      .d {
        fill: #f90;
      }

      .e {
        fill: #111118;
      }
    </style>
  </defs>
  <g id="c" data-name="Layer 1">
    <g>
      <g>
        <path class="e" d="M154.32,304.53c-2.06.52-7.38.58-53.03.63-27.91.03-51.38,0-52.15-.07-3.46-.32-6.5-.92-8.97-1.76-12.72-4.36-22.15-15.38-24.54-28.66-.39-2.16-.48-15.56-.49-72.8v-70.16s-1.86-1.23-1.86-1.23c-6.52-4.34-11.54-12.32-12.99-20.62-.61-3.5-.22-10.62.74-13.66.99-3.11,2.86-6.84,4.58-9.14,2.64-3.52,7.75-7.78,10.37-8.65,1-.33,1.19-.6,1.56-2.22,1.63-7.21,7.01-15.23,13.41-19.97,2.83-2.1,8.1-4.7,11.46-5.66,7.65-2.18,16.54-1.57,24.07,1.65l2.92,1.24,1.49-1.37c5.4-4.98,13.69-8.51,21.77-9.27,12.54-1.18,24.88,3.3,33.7,12.25,1.73,1.76,4.89,5.6,5.22,6.34.02.04,1.22-.55,2.66-1.32,3.17-1.69,8-3.3,11.7-3.89,3.85-.61,11.97-.26,15.48.67,14.18,3.75,24.12,13.97,28.17,28.95.71,2.63.81,3.83.82,9.87,0,5.96-.1,7.28-.78,9.96-1.07,4.22-2.74,8.33-4.76,11.68l-1.69,2.81.1,6.71.1,6.72,11.28.2c8.98.16,11.68.32,13.29.78,10.6,3.07,18.01,10.34,21.32,20.93l.97,3.1.11,30.96c.12,34.48.1,34.85-2.2,40.16-1.94,4.5-3.35,6.57-6.89,10.14-3.4,3.43-5.94,5.19-9.96,6.88-3.84,1.62-6.48,1.9-17.73,1.9h-10.36v10c0,5.5-.17,11.61-.37,13.58-.9,8.71-4.36,16.03-10.55,22.26-5.19,5.24-10.5,8.21-17.98,10.09ZM47.71,295.08c.98.17,24.61.27,52.52.24,4.21,0,8.08,0,11.64-.01,36.66-.03,40.58-.04,43.84-1.52.7-.32,1.38-.71,2.35-1.19,6.9-3.38,12.16-9.91,14.45-17.94.63-2.2.66-5.3.75-73.56.05-39.2.02-71.27-.07-71.27s-.88.48-1.76,1.07c-4.3,2.9-11.19,5.21-16.48,5.52l-3.41.2-.13,7.09c-.12,6.57-.2,7.29-1.08,9.93-1.76,5.26-5.18,9.26-9.94,11.62-5.96,2.95-12.02,2.8-18.2-.43-3.08-1.61-6.64-5.28-8.04-8.28-1.83-3.92-2.12-5.77-2.12-13.22v-6.79l-42.55-.13c-23.4-.07-43.02-.24-43.61-.39l-1.06-.26.06,65.48c.03,36.02.14,66.99.25,68.83.69,12.24,10.34,22.91,22.58,24.99ZM128.89,157.54c3.42,1.22,7.05.24,9.98-2.69,2.94-2.94,3.11-3.75,3.12-14.6,0-8.52.03-8.88.8-10.24,1.41-2.49,2.94-3.04,9.35-3.34,4.83-.23,5.91-.39,8.61-1.33,9.1-3.15,16.52-11.17,19.31-20.88,1.03-3.57,1.33-11.44.58-14.98-1.77-8.33-7.09-15.97-13.87-19.94-4.87-2.84-8.85-3.89-14.92-3.93-7.3-.05-13.49,2.33-18.86,7.23-3.75,3.43-5.43,3.04-7.33-1.68-3.53-8.76-12.01-15.78-21.79-18.03-1.78-.41-4.12-.59-7.51-.58-4.32,0-5.32.12-8.04.95-3.49,1.06-5.86,2.18-8.7,4.11-1.91,1.3-5.51,4.85-6.9,6.8-.51.71-1.1,1.04-2.1,1.18-1.26.17-1.6.03-3.51-1.48-2.39-1.88-6.11-3.72-8.99-4.44-3.09-.77-9.5-.61-12.79.33-7.16,2.03-12.79,6.56-16.17,13-1.85,3.53-2.64,5.94-3.09,9.39-.36,2.84-.95,3.62-2.95,3.95-2.44.39-5.88,2.3-8.03,4.44-3.35,3.35-5.59,8.87-5.59,13.78,0,8.58,5.08,16.45,12.95,20.05,5.15,2.35,1.7,2.19,50.83,2.4l44.58.19,1.1.79c2.26,1.61,2.4,2.37,2.6,13.34l.18,9.9,1.31,1.97c1.32,1.99,3.22,3.4,5.86,4.34ZM183.21,143.53v95.19h9.18c10.32,0,13-.35,16.81-2.21,4.53-2.21,8.44-6.82,10.37-12.24l.81-2.29.1-30.08c0-1.33.01-2.61.01-3.83.08-23.99.1-27.75-1.23-30.96-.31-.76-.7-1.49-1.18-2.46-2.27-4.53-6.24-8.1-11.21-10.08-1.88-.75-2.58-.8-12.83-.92l-10.84-.13Z"/>
        <path class="d" d="M151.5,139.45v9.07h4.77c3.5,0,4.81.12,4.91.44.26.81.44,111.43.18,115.69-.29,4.81-.98,7.14-3.04,10.26-2.02,3.06-4.5,5.26-7.69,6.83-.76.37-1.36.69-1.97.95-3.51,1.52-7.67,1.51-44.95,1.42-1.9,0-3.88-.01-5.95-.01-42.35-.1-44.85-.13-46.68-.75-7-2.34-11.88-7.13-13.89-13.64l-.92-2.97.19-118.05,37.79-.09,37.79-.09v-5.17c0,7.45.3,9.3,2.12,13.22,1.4,3,4.96,6.67,8.04,8.28,6.19,3.24,12.25,3.38,18.2.43,4.76-2.36,8.19-6.36,9.94-11.62.88-2.64.96-3.36,1.08-9.93l.08-4.28ZM60.41,242.61c1.42.93,4.19.94,5.72,0,.63-.38,5.6-5.02,11.06-10.31,5.45-5.29,11.38-10.99,13.17-12.68,3.46-3.27,4.4-4.71,4.4-6.78,0-1.26-1.09-3.89-1.71-4.13-.3-.11-3.99-3.39-8.51-7.54-1.62-1.49-7-6.3-16.18-14.46-2.37-2.11-3.73-2.72-5.6-2.51-1.8.2-3.15,1.08-4.07,2.67-.82,1.4-.87,3.77-.12,5.23.32.62,4.82,4.98,9.99,9.69l10.98,9.99,1.56,1.42-10.99,10.74c-6.05,5.9-11.22,11.16-11.5,11.68-1.18,2.21-.31,5.61,1.78,6.98ZM97.94,28.34c-1.26.2-2.45.35-2.64.33-8.95-.98-14.76-7.9-13.65-16.24.68-5.05,3.35-8.88,7.74-11.07C92.05.03,92.23,0,95.83,0c3.31,0,3.91.11,5.73.98,2.42,1.16,5.07,3.63,6.53,6.06,2.3,3.85,2.48,9.36.43,13.38-2.22,4.37-5.96,7.17-10.57,7.91ZM97.34,245.08c1.08.66,1.9.69,18.22.69s17.13-.02,18.26-.71c1.52-.92,2.69-3.46,2.37-5.14-.32-1.72-2-3.48-3.8-3.98-1.08-.3-6.04-.38-17.77-.31-15.8.1-16.3.13-17.25.83-1.73,1.3-2.33,2.41-2.33,4.34,0,2.07.65,3.27,2.3,4.28ZM136.6,41.67c-6.52,3.05-13.76-1.36-13.74-8.38.01-4.86,2.63-8.16,7.54-9.49,3.57-.97,7.98,1.03,10.08,4.55,1.04,1.73,1.15,2.2,1.15,4.68,0,1.57-.21,3.27-.49,3.94-.72,1.72-2.83,3.91-4.54,4.71Z"/>
      </g>
      <g>
        <path class="e" d="M340.98,197.87c-2.47-2.03-5.06-3.51-7.79-4.42-2.73-.91-5.06-1.42-6.99-1.53v-4.82c1.61-.32,3.48-1.02,5.62-2.09,2.14-1.07,4.2-2.62,6.19-4.66,1.98-2.03,3.67-4.55,5.06-7.55,1.39-3,2.09-6.64,2.09-10.93,0-5.79-1.31-10.66-3.94-14.62-2.63-3.96-5.81-7.07-9.56-9.32-1.72-1.07-3.78-1.87-6.19-2.41-2.41-.53-5.01-.94-7.79-1.21-2.79-.27-5.6-.43-8.44-.48-2.84-.05-5.49-.08-7.95-.08h-41.62v114.74h55.44c5.68,0,10.69-.83,15.02-2.49,4.34-1.66,7.98-3.88,10.93-6.67,2.95-2.78,5.17-6.05,6.67-9.8,1.5-3.75,2.25-7.71,2.25-11.89,0-4.71-.88-8.68-2.65-11.89-1.77-3.21-3.88-5.84-6.35-7.87ZM274.93,146.6h30.53c3.32,0,6.45.19,9.4.56,2.95.38,5.54,1.21,7.79,2.49,2.25,1.29,4.02,3.11,5.3,5.46,1.29,2.36,1.93,5.57,1.93,9.64,0,6.11-1.9,10.69-5.7,13.74-3.8,3.05-10.04,4.58-18.72,4.58h-30.53v-36.48ZM329,230.17c-3.8,3.64-9.08,5.46-15.83,5.46h-38.25v-39.69h34.87c3.21,0,6.32.3,9.32.88,3,.59,5.65,1.61,7.95,3.05,2.3,1.45,4.15,3.4,5.54,5.87,1.39,2.47,2.09,5.57,2.09,9.32,0,6.43-1.9,11.46-5.71,15.11Z"/>
        <path class="e" d="M387.58,166.77c-1.88.59-3.35,1.47-4.42,2.65-1.07,1.18-2.25,2.84-3.54,4.98h-5.14v-9h-13.66v83.08h13.66v-71.03h32.46v-12.05c-5.04,0-9.05.08-12.05.24-3,.16-5.44.54-7.31,1.12Z"/>
        <path class="e" d="M475.14,174.89c-3.37-3.64-7.39-6.45-12.05-8.44-4.66-1.98-9.83-2.97-15.51-2.97s-11.04,1.02-15.75,3.05c-4.72,2.04-8.73,4.93-12.05,8.68-3.32,3.75-5.89,8.33-7.71,13.74-1.82,5.41-2.73,11.44-2.73,18.08s.91,12.64,2.73,18c1.82,5.36,4.39,9.91,7.71,13.66,3.32,3.75,7.34,6.64,12.05,8.68,4.71,2.03,9.96,3.05,15.75,3.05,4.39,0,8.62-.64,12.7-1.93,4.07-1.29,7.74-3.13,11.01-5.54,3.27-2.41,6.05-5.36,8.36-8.84,2.3-3.48,3.83-7.47,4.58-11.97h-13.98c-.54,2.68-1.55,5.04-3.05,7.07-1.5,2.04-3.29,3.75-5.38,5.14-2.09,1.39-4.37,2.41-6.83,3.05-2.47.64-4.93.96-7.39.96-7.5,0-13.31-2.46-17.44-7.39-4.12-4.93-6.46-11.57-6.99-19.93h62.67v-5.14c0-6.53-.94-12.43-2.81-17.68-1.88-5.25-4.5-9.69-7.87-13.34ZM423.47,198.99c1.07-7.28,3.62-13.02,7.63-17.19,4.02-4.18,9.51-6.27,16.47-6.27,3.96,0,7.39.7,10.28,2.09,2.89,1.39,5.3,3.21,7.23,5.46,1.93,2.25,3.43,4.77,4.5,7.55,1.07,2.79,1.82,5.57,2.25,8.36h-48.37Z"/>
        <polygon class="e" points="580.08 236.43 574.78 236.43 561.28 165.41 537.18 165.41 523.52 236.43 518.21 236.43 504.39 165.41 489.77 165.41 507.77 248.49 533.64 248.49 548.1 177.46 550.19 177.46 564.82 248.49 590.69 248.49 608.69 165.41 594.06 165.41 580.08 236.43"/>
        <polygon class="e" points="707.26 236.43 701.95 236.43 688.46 165.41 664.35 165.41 650.69 236.43 645.39 236.43 631.57 165.41 616.94 165.41 634.94 248.49 660.82 248.49 675.28 177.46 677.37 177.46 691.99 248.49 717.86 248.49 735.86 165.41 721.24 165.41 707.26 236.43"/>
        <path class="e" d="M804.6,174.89c-3.38-3.64-7.39-6.45-12.05-8.44-4.66-1.98-9.83-2.97-15.51-2.97s-11.04,1.02-15.75,3.05c-4.71,2.04-8.73,4.93-12.05,8.68-3.32,3.75-5.89,8.33-7.71,13.74-1.82,5.41-2.73,11.44-2.73,18.08s.91,12.64,2.73,18c1.82,5.36,4.39,9.91,7.71,13.66,3.32,3.75,7.34,6.64,12.05,8.68,4.71,2.03,9.96,3.05,15.75,3.05,4.39,0,8.62-.64,12.69-1.93,4.07-1.29,7.74-3.13,11.01-5.54,3.27-2.41,6.05-5.36,8.36-8.84,2.3-3.48,3.83-7.47,4.58-11.97h-13.98c-.54,2.68-1.55,5.04-3.05,7.07-1.5,2.04-3.29,3.75-5.38,5.14-2.09,1.39-4.37,2.41-6.83,3.05-2.47.64-4.93.96-7.39.96-7.5,0-13.31-2.46-17.44-7.39-4.13-4.93-6.46-11.57-6.99-19.93h62.67v-5.14c0-6.53-.94-12.43-2.81-17.68-1.88-5.25-4.5-9.69-7.87-13.34ZM752.93,198.99c1.07-7.28,3.62-13.02,7.63-17.19,4.02-4.18,9.51-6.27,16.47-6.27,3.96,0,7.39.7,10.28,2.09,2.89,1.39,5.3,3.21,7.23,5.46,1.93,2.25,3.43,4.77,4.5,7.55,1.07,2.79,1.82,5.57,2.25,8.36h-48.37Z"/>
        <path class="e" d="M855.15,166.77c-1.88.59-3.35,1.47-4.42,2.65-1.07,1.18-2.25,2.84-3.54,4.98h-5.14v-9h-13.66v83.08h13.66v-71.03h32.46v-12.05c-5.04,0-9.05.08-12.05.24-3,.16-5.44.54-7.31,1.12Z"/>
        <polygon class="e" points="948.2 165.41 926.5 236.43 921.36 236.43 899.02 165.41 884.08 165.41 911.72 248.49 922.81 248.49 912.52 282.23 925.86 282.23 962.18 165.41 948.2 165.41"/>
      </g>
    </g>
  </g>
</svg>